<svg width="389" height="165" viewBox="0 0 389 165" fill="none" xmlns="http://www.w3.org/2000/svg">
<path d="M254.94 19.6492C253.895 22.0443 253.779 22.754 254.244 24.4395C254.592 25.504 255.405 32.4677 256.043 39.9193C256.682 47.371 257.611 57.2177 258.076 61.875C259.121 72.254 259.179 77.0443 258.192 78.5081C257.088 80.1935 253.315 81.6129 249.947 81.6129C244.025 81.6129 239.554 78.1532 237.755 72.2097C236.71 68.5726 236.129 67.8629 234.329 67.8629C232.761 67.9073 231.194 68.9718 225.62 73.9839C219.176 79.75 216.737 80.9919 201.583 86.0484C198.971 86.9355 198.332 87.4234 197.113 89.4194C195.023 92.7903 195.139 93.0121 199.029 93.3226C200.829 93.5 208.028 94.2097 214.995 94.9637C222.02 95.6734 228.117 96.25 228.639 96.25C229.22 96.25 229.336 96.3831 229.046 96.6492C228.407 97.0927 207.854 102.903 206.983 102.903C206.693 102.903 205.648 101.883 204.661 100.641C203.732 99.3992 201.816 97.625 200.48 96.6492C196.59 93.9436 193.861 93.8105 190.204 96.2944C187.417 98.1573 185.907 100.153 185.211 102.815C184.514 105.609 185.327 107.871 187.301 108.891C189.681 110.089 194.907 110.621 199.319 110.133C202.454 109.778 203.209 109.823 203.499 110.355C205.125 113.637 199.609 117.585 183.759 124.415C175.166 128.141 168.547 130.536 150.665 136.391C135.918 141.181 131.505 142.778 132.957 142.778C134.234 142.823 145.498 140.96 157.981 138.698C169.593 136.569 173.134 135.415 184.34 130.27C199.842 123.173 205.183 118.649 206.577 111.242L206.983 108.98L214.531 106.629C229.568 101.883 245.244 98.4677 251.747 98.4677C254.302 98.4677 254.36 98.4234 255.521 96.3387C256.16 95.1855 256.74 93.7661 256.798 93.1452C256.914 92.0363 256.856 92.0363 250.528 91.7258C241.064 91.2379 223.588 89.4637 216.447 88.2218L213.718 87.7339L221.962 81.4355C229.8 75.4476 232.355 73.9395 233.4 74.8266C233.632 75.004 234.387 76.6008 235.026 78.2863C237.464 84.496 241.645 87.7339 247.857 88.1331C252.328 88.4435 254.186 87.8669 257.437 85.1169C260.514 82.5 262.198 79.1734 263.069 74.0282C263.765 69.8589 263.301 62.6734 260.746 39.4758C260.166 34.2419 259.759 29.8508 259.875 29.7621C259.991 29.629 260.92 30.1169 261.849 30.8266C262.778 31.5363 263.707 31.9798 263.881 31.8468C264.404 31.4919 257.263 16.8548 256.566 16.8548C256.392 16.8548 255.695 18.0968 254.94 19.6492ZM197.403 102.238L199.319 103.746L197.751 104.056C195.429 104.5 191.017 104.012 189.971 103.169C188.172 101.794 191.017 100.109 194.268 100.597C194.965 100.685 196.416 101.44 197.403 102.238Z" fill="black"/>
<path d="M274.855 18.4516C273.636 20.5363 273.636 21.3347 274.855 34.375C275.377 39.9637 276.19 49.0565 276.655 54.5565C277.119 60.0565 278.164 72.0323 279.035 81.1694C280.022 92.2581 280.429 99.621 280.254 103.214C280.08 106.23 280.022 108.669 280.196 108.669C280.835 108.669 282.809 104.367 283.68 100.996C284.783 96.8266 284.609 88.4436 283.041 72.5202C281.996 61.254 279.267 31.1371 279.267 30.2057C279.267 29.7621 279.732 29.8952 280.893 30.7379C283.041 32.2903 283.564 32.246 283.099 30.4718C282.635 28.6089 277.235 17.7863 276.422 17.1653C276.074 16.8992 275.552 17.2984 274.855 18.4516Z" fill="black"/>
<path d="M222.078 31.0484C208.434 35.3065 202.745 37.5686 201.351 39.3427L200.19 40.8065L205.648 38.8105C211.86 36.5927 229.162 31.0484 229.917 31.0484C230.497 31.0484 232.471 28.4315 232.123 28.1653C232.007 28.0766 227.478 29.3629 222.078 31.0484Z" fill="black"/>
<path d="M138.182 39.4315C137.253 40.1411 136.324 41.25 136.092 41.9153C135.744 42.9799 135.976 43.379 137.602 44.4879L139.576 45.8186L137.253 47.2823C136.034 48.125 131.273 50.3871 126.686 52.3831C122.1 54.379 118.5 56.0645 118.616 56.1532C118.964 56.4194 127.035 53.8024 130.983 52.117C133.015 51.2299 136.034 49.5887 137.718 48.3911C140.272 46.617 141.027 46.3065 141.898 46.6613C143.698 47.4597 144.743 45.4194 143.117 44.3549C142.42 43.9113 142.304 43.2903 142.595 41.871C143.291 38.1452 141.317 36.992 138.182 39.4315ZM140.969 41.8266C141.201 43.246 140.04 43.4234 138.589 42.2258C137.834 41.6049 137.776 41.2944 138.298 40.8952C139.459 40.0081 140.795 40.496 140.969 41.8266Z" fill="black"/>
<path d="M225.098 39.3427C224.343 39.875 224.691 41.7379 225.852 43.5121C227.188 45.508 227.014 46.129 224.981 46.129C223.53 46.129 221.788 44.6653 221.788 43.4677C221.788 42.2258 220.569 39.4758 220.046 39.4758C219.292 39.4758 219.35 41.4274 220.163 43.5121C220.743 45.0201 220.685 45.375 219.756 46.129C218.479 47.2379 216.214 47.2822 215.46 46.2177C215.169 45.8185 214.995 44.4435 214.995 43.1572C215.111 40.8064 214.531 39.7419 213.718 40.7621C213.021 41.6048 213.66 47.0605 214.589 48.2137C215.111 48.8347 215.982 49.2339 216.853 49.2339C218.479 49.2339 220.627 47.8145 220.627 46.75C220.627 46.1734 220.975 46.2621 222.078 47.1935C224.923 49.5443 227.943 47.8589 227.42 44.2661C227.13 42.004 225.62 38.8992 225.098 39.3427Z" fill="black"/>
<path d="M226.201 56.3307C225.678 57.3065 225.156 58.1048 224.982 58.1048C224.807 58.1048 223.298 57.3952 221.614 56.5524C219.988 55.7097 218.363 55 218.014 55C217.666 55 216.679 56.1089 215.808 57.4395L214.24 59.879L217.724 61.6532C219.582 62.629 221.382 63.4274 221.672 63.4274C221.962 63.4274 222.659 62.629 223.24 61.6532C223.82 60.6774 224.459 59.879 224.691 59.879C224.923 59.879 226.549 60.6774 228.349 61.6532L231.6 63.4274L233.052 61.5645C235.316 58.504 235.258 58.1492 231.716 56.2419C229.975 55.3105 228.233 54.5565 227.826 54.5565C227.478 54.5565 226.723 55.3548 226.201 56.3307Z" fill="black"/>
<path d="M141.434 55.8871C141.259 56.242 140.853 57.75 140.505 59.2581C139.924 61.875 139.982 62.0524 142.014 65.4678C146.833 73.5847 150.201 81.8791 150.781 87.4234C151.13 90.3508 151.071 90.4839 149.039 92.6129C143.175 98.6895 131.041 105.52 122.042 107.738C114.145 109.69 108.746 109.335 106.482 106.718C105.204 105.165 105.611 99.3105 107.411 94.2984C108.049 92.3911 108.514 90.75 108.339 90.617C108.223 90.5282 107.527 91.5928 106.83 93.0121C102.185 102.46 102.301 110.71 107.12 113.948C108.978 115.19 109.617 115.323 112.81 115.323C114.842 115.323 117.977 115.012 119.835 114.657C127.325 113.149 138.298 107.782 145.091 102.238C149.504 98.6452 150.201 97.8024 151.826 94.4315L153.045 91.7702L154.323 97.3145C156.355 106.186 158.329 108.315 164.948 108.936C168.78 109.29 171.044 108.536 173.25 106.363C177.605 101.927 177.431 92.5686 172.844 88.0444C171.973 87.2016 171.915 87.2016 171.044 88.7984C169.651 91.2823 169.883 92.7903 172.205 96.1613C174.005 98.8226 174.237 99.3549 173.599 100.198C172.089 102.371 166.051 103.125 162.683 101.573C159.897 100.242 158.851 98.0686 156.471 87.8226C152.929 72.742 151.362 68.3952 147.181 61.875C144.162 57.2178 141.898 54.867 141.434 55.8871Z" fill="black"/>
<path d="M198.913 62.629C197.693 64.0928 195.313 68.9718 194.5 71.9879C193.455 75.4032 194.21 76.7339 197.113 76.7339C200.016 76.7339 202.629 74.871 203.035 72.4315C203.441 69.9476 202.977 68.617 200.829 66.754C199.029 65.2016 199.029 65.2016 199.958 63.4274C200.945 61.5202 200.306 61.0323 198.913 62.629ZM199.145 69.4597C200.771 70.3024 202.048 71.4113 202.048 71.9436C202.048 72.5202 196.939 74.1613 196.242 73.8508C195.429 73.496 195.487 71.2782 196.358 69.8589C197.113 68.5282 197.287 68.5282 199.145 69.4597Z" fill="black"/>
<path d="M227.304 109.556C226.491 110.754 225.852 111.952 225.852 112.173C225.852 112.44 227.42 113.415 229.278 114.391C231.891 115.766 232.819 116.032 233.284 115.633C233.923 115.012 236.303 111.464 236.303 111.153C236.303 110.887 229.568 107.339 229.104 107.339C228.929 107.339 228.117 108.315 227.304 109.556Z" fill="black"/>
<path d="M160.651 116.032C159.78 117.363 159.084 118.516 159.084 118.605C159.084 118.871 164.832 121.976 165.761 122.286C166.283 122.419 167.038 121.798 167.793 120.69C168.431 119.669 169.186 118.871 169.418 118.871C169.651 118.871 171.16 119.581 172.844 120.468C174.528 121.355 176.153 121.931 176.502 121.754C177.256 121.399 179.405 118.206 179.405 117.407C179.405 116.742 173.773 113.548 172.612 113.548C172.263 113.548 171.509 114.347 170.928 115.323C170.347 116.298 169.709 117.097 169.534 117.097C169.36 117.097 168.257 116.565 167.154 115.944C166.051 115.323 164.483 114.524 163.67 114.214C162.219 113.637 162.161 113.637 160.651 116.032Z" fill="black"/>
<path d="M204.37 128.851C187.591 134.173 185.617 134.927 184.166 136.835C183.469 137.722 183.062 138.387 183.295 138.298C188.868 136.125 197.287 133.331 211.802 128.806C212.905 128.452 213.892 127.742 214.24 127.032C214.589 126.367 214.763 125.79 214.705 125.746C214.589 125.657 209.944 127.077 204.37 128.851Z" fill="black"/>
</svg>
