<svg width="38" height="21" viewBox="0 0 38 21" fill="none" xmlns="http://www.w3.org/2000/svg">
<path d="M28.5035 1.07131e-07H9.50068C7.93443 -0.000247171 6.39243 0.427583 5.01195 1.2454C3.63147 2.06322 2.45536 3.24565 1.58832 4.68742C0.721278 6.12919 0.190211 7.78557 0.0423989 9.50908C-0.105413 11.2326 0.134617 12.9698 0.741119 14.5659C1.34762 16.1621 2.30178 17.5678 3.51864 18.6577C4.7355 19.7477 6.1773 20.4882 7.7157 20.8132C9.25409 21.1383 10.8413 21.0379 12.3361 20.5209C13.8309 20.0039 15.1868 19.0864 16.2832 17.85H21.7168C22.8131 19.0862 24.1688 20.0037 25.6634 20.5207C27.158 21.0377 28.745 21.1383 30.2833 20.8135C31.8215 20.4886 33.2633 19.7484 34.4802 18.6588C35.697 17.5692 36.6513 16.1639 37.2581 14.5681C37.8648 12.9722 38.1052 11.2353 37.9578 9.51194C37.8105 7.78857 37.2799 6.13222 36.4134 4.69029C35.5469 3.24837 34.3713 2.06561 32.9913 1.2473C31.6112 0.42899 30.0695 0.000510246 28.5035 1.07131e-07ZM14.7253 11.2875C14.7253 11.4964 14.6502 11.6967 14.5166 11.8443C14.383 11.992 14.2018 12.075 14.0129 12.075H10.9256V15.4875C10.9256 15.6964 10.8505 15.8967 10.7169 16.0443C10.5833 16.192 10.4021 16.275 10.2131 16.275H8.78823C8.59928 16.275 8.41806 16.192 8.28445 16.0443C8.15084 15.8967 8.07578 15.6964 8.07578 15.4875V12.075H4.9885C4.79955 12.075 4.61834 11.992 4.48472 11.8443C4.35111 11.6967 4.27605 11.4964 4.27605 11.2875V9.7125C4.27605 9.50364 4.35111 9.30334 4.48472 9.15565C4.61834 9.00797 4.79955 8.925 4.9885 8.925H8.07578V5.5125C8.07578 5.30364 8.15084 5.10334 8.28445 4.95565C8.41806 4.80797 8.59928 4.725 8.78823 4.725H10.2131C10.4021 4.725 10.5833 4.80797 10.7169 4.95565C10.8505 5.10334 10.9256 5.30364 10.9256 5.5125V8.925H14.0129C14.2018 8.925 14.383 9.00797 14.5166 9.15565C14.6502 9.30334 14.7253 9.50364 14.7253 9.7125V11.2875ZM27.5494 16.275C27.0797 16.275 26.6205 16.121 26.23 15.8326C25.8395 15.5442 25.5351 15.1342 25.3553 14.6545C25.1756 14.1749 25.1286 13.6471 25.2202 13.1379C25.3118 12.6287 25.538 12.161 25.8701 11.7938C26.2023 11.4267 26.6254 11.1767 27.0861 11.0754C27.5468 10.9742 28.0243 11.0261 28.4582 11.2248C28.8921 11.4235 29.263 11.7599 29.524 12.1916C29.7849 12.6233 29.9242 13.1308 29.9242 13.65C29.9242 14.3462 29.674 15.0139 29.2286 15.5062C28.7833 15.9984 28.1792 16.275 27.5494 16.275ZM31.3491 9.975C30.8794 9.975 30.4203 9.82105 30.0297 9.53261C29.6392 9.24417 29.3348 8.8342 29.1551 8.35454C28.9753 7.87489 28.9283 7.34709 29.0199 6.83789C29.1116 6.32869 29.3377 5.86096 29.6699 5.49384C30.002 5.12673 30.4251 4.87672 30.8858 4.77544C31.3465 4.67415 31.824 4.72614 32.2579 4.92482C32.6919 5.1235 33.0628 5.45995 33.3237 5.89163C33.5847 6.32331 33.7239 6.83082 33.7239 7.35C33.7239 8.04619 33.4737 8.71387 33.0284 9.20615C32.583 9.69844 31.979 9.975 31.3491 9.975Z" fill="black"/>
</svg>
